<svg width="30" height="24" viewBox="0 0 30 24" fill="none" xmlns="http://www.w3.org/2000/svg">
<g filter="url(#filter0_d_1_214)">
<path d="M25.8093 7.26109L18.998 0.444912C18.8667 0.342663 18.7027 0.29197 18.5368 0.302356C18.3709 0.312741 18.2145 0.383491 18.0969 0.501314C17.9794 0.619137 17.9088 0.775925 17.8984 0.942228C17.8881 1.10853 17.9387 1.2729 18.0407 1.40447L23.6855 7.06256H4.68223C4.50129 7.06256 4.32776 7.13461 4.19982 7.26285C4.07188 7.39109 4 7.56502 4 7.74638C4 7.92774 4.07188 8.10168 4.19982 8.22992C4.32776 8.35816 4.50129 8.43021 4.68223 8.43021H23.6745L18.0407 14.0773C17.9643 14.1368 17.9014 14.2119 17.8562 14.2976C17.8109 14.3834 17.7844 14.4778 17.7784 14.5746C17.7724 14.6714 17.787 14.7684 17.8212 14.8591C17.8554 14.9498 17.9085 15.0322 17.9769 15.1007C18.0453 15.1693 18.1275 15.2225 18.218 15.2568C18.3085 15.2911 18.4053 15.3057 18.5018 15.2997C18.5984 15.2937 18.6926 15.2671 18.7781 15.2218C18.8637 15.1764 18.9386 15.1134 18.998 15.0368L25.8093 8.20962C25.9316 8.0822 26 7.91222 26 7.73535C26 7.55849 25.9316 7.3885 25.8093 7.26109Z" fill="#FEFEFE"/>
</g>
<defs>
<filter id="filter0_d_1_214" x="0" y="0.301025" width="30" height="23" filterUnits="userSpaceOnUse" color-interpolation-filters="sRGB">
<feFlood flood-opacity="0" result="BackgroundImageFix"/>
<feColorMatrix in="SourceAlpha" type="matrix" values="0 0 0 0 0 0 0 0 0 0 0 0 0 0 0 0 0 0 127 0" result="hardAlpha"/>
<feOffset dy="4"/>
<feGaussianBlur stdDeviation="2"/>
<feComposite in2="hardAlpha" operator="out"/>
<feColorMatrix type="matrix" values="0 0 0 0 0 0 0 0 0 0 0 0 0 0 0 0 0 0 0.25 0"/>
<feBlend mode="normal" in2="BackgroundImageFix" result="effect1_dropShadow_1_214"/>
<feBlend mode="normal" in="SourceGraphic" in2="effect1_dropShadow_1_214" result="shape"/>
</filter>
</defs>
</svg>
