<svg width="32" height="32" viewBox="0 0 32 32" fill="none" xmlns="http://www.w3.org/2000/svg">
<path opacity="0.1" fill-rule="evenodd" clip-rule="evenodd" d="M0 16C0 7.16344 7.16344 0 16 0C24.8366 0 32 7.16344 32 16C32 24.8366 24.8366 32 16 32C7.16344 32 0 24.8366 0 16Z" fill="#647B64"/>
<path fill-rule="evenodd" clip-rule="evenodd" d="M15.5341 7C13.2166 7 12.9258 7.01013 12.0155 7.05156C11.1071 7.09316 10.487 7.23698 9.94439 7.448C9.38314 7.66596 8.90704 7.95752 8.43273 8.43201C7.95805 8.90633 7.6665 9.38242 7.44783 9.9435C7.23627 10.4863 7.09227 11.1065 7.05138 12.0146C7.01067 12.9249 7 13.2159 7 15.5334C7 17.851 7.01031 18.1409 7.05156 19.0511C7.09333 19.9596 7.23716 20.5797 7.448 21.1223C7.66614 21.6835 7.9577 22.1596 8.43219 22.6339C8.90633 23.1086 9.38242 23.4009 9.94332 23.6188C10.4863 23.8299 11.1065 23.9737 12.0148 24.0153C12.925 24.0567 13.2157 24.0668 15.5331 24.0668C17.8508 24.0668 18.1407 24.0567 19.051 24.0153C19.9594 23.9737 20.5802 23.8299 21.1232 23.6188C21.6842 23.4009 22.1596 23.1086 22.6338 22.6339C23.1084 22.1596 23.4 21.6835 23.6187 21.1225C23.8284 20.5797 23.9724 19.9594 24.0151 19.0513C24.056 18.1411 24.0667 17.851 24.0667 15.5334C24.0667 13.2159 24.056 12.925 24.0151 12.0148C23.9724 11.1064 23.8284 10.4863 23.6187 9.94368C23.4 9.38242 23.1084 8.90633 22.6338 8.43201C22.1591 7.95734 21.6844 7.66578 21.1226 7.448C20.5786 7.23698 19.9582 7.09316 19.0497 7.05156C18.1395 7.01013 17.8497 7 15.5315 7H15.5341ZM14.7686 8.53777C14.9958 8.53741 15.2493 8.53777 15.5341 8.53777C17.8125 8.53777 18.0826 8.54595 18.9823 8.58684C19.8143 8.62488 20.2659 8.76391 20.5667 8.88071C20.9649 9.03537 21.2488 9.22027 21.5473 9.51894C21.846 9.81761 22.0309 10.1021 22.1859 10.5003C22.3027 10.8007 22.4419 11.2523 22.4798 12.0843C22.5207 12.9839 22.5295 13.2541 22.5295 15.5314C22.5295 17.8088 22.5207 18.079 22.4798 18.9786C22.4417 19.8106 22.3027 20.2622 22.1859 20.5626C22.0312 20.9608 21.846 21.2444 21.5473 21.5429C21.2486 21.8416 20.9651 22.0264 20.5667 22.1811C20.2662 22.2984 19.8143 22.4371 18.9823 22.4752C18.0827 22.516 17.8125 22.5249 15.5341 22.5249C13.2555 22.5249 12.9854 22.516 12.0859 22.4752C11.2539 22.4368 10.8023 22.2977 10.5013 22.1809C10.1031 22.0263 9.81866 21.8414 9.51999 21.5427C9.22132 21.244 9.03643 20.9603 8.88141 20.5619C8.7646 20.2614 8.6254 19.8099 8.58754 18.9779C8.54665 18.0783 8.53847 17.8081 8.53847 15.5293C8.53847 13.2505 8.54665 12.9817 8.58754 12.0822C8.62558 11.2502 8.7646 10.7986 8.88141 10.4978C9.03607 10.0996 9.22132 9.81512 9.51999 9.51645C9.81866 9.21778 10.1031 9.03289 10.5013 8.87786C10.8021 8.76053 11.2539 8.62186 12.0859 8.58364C12.8731 8.54808 13.1782 8.53741 14.7686 8.53564V8.53777ZM20.0892 9.95468C19.5238 9.95468 19.0652 10.4128 19.0652 10.9783C19.0652 11.5437 19.5238 12.0023 20.0892 12.0023C20.6545 12.0023 21.1132 11.5437 21.1132 10.9783C21.1132 10.413 20.6545 9.95468 20.0892 9.95468ZM15.5341 11.1511C13.114 11.1511 11.1519 13.1133 11.1519 15.5334C11.1519 17.9535 13.114 19.9148 15.5341 19.9148C17.9543 19.9148 19.9157 17.9535 19.9157 15.5334C19.9157 13.1133 17.9543 11.1511 15.5341 11.1511ZM15.5341 12.6889C17.105 12.6889 18.3786 13.9624 18.3786 15.5334C18.3786 17.1043 17.105 18.3779 15.5341 18.3779C13.9631 18.3779 12.6896 17.1043 12.6896 15.5334C12.6896 13.9624 13.9631 12.6889 15.5341 12.6889Z" fill="#647B64"/>
</svg>
